<svg width="69" height="69" viewBox="0 0 69 69" fill="none" xmlns="http://www.w3.org/2000/svg">
<path d="M34.5 9.14141C39.1491 9.14141 42.9529 12.9452 42.9529 17.5943C42.9529 22.2434 39.1491 26.0471 34.5 26.0471C29.8509 26.0471 26.0471 22.2434 26.0471 17.5943C26.0471 12.9452 29.8509 9.14141 34.5 9.14141ZM34.5 47.1793C45.9114 47.1793 59.0133 52.6314 59.8586 55.6322V59.8586H9.14141V55.6744C9.98669 52.6314 23.0886 47.1793 34.5 47.1793ZM34.5 0.688538C25.1596 0.688538 17.5943 8.25385 17.5943 17.5943C17.5943 26.9347 25.1596 34.5 34.5 34.5C43.8404 34.5 51.4057 26.9347 51.4057 17.5943C51.4057 8.25385 43.8404 0.688538 34.5 0.688538ZM34.5 38.7264C23.2154 38.7264 0.688538 44.3899 0.688538 55.6322V68.3115H68.3115V55.6322C68.3115 44.3899 45.7846 38.7264 34.5 38.7264Z" fill="#474747"/>
</svg>
